<svg width="24" height="24" viewBox="0 0 24 24" fill="none" xmlns="http://www.w3.org/2000/svg">
<path d="M8.28033 11.9697C7.98744 11.6768 7.51256 11.6768 7.21967 11.9697C6.92678 12.2626 6.92678 12.7374 7.21967 13.0303L11.2197 17.0303C11.5126 17.3232 11.9874 17.3232 12.2803 17.0303L16.2803 13.0303C16.5732 12.7374 16.5732 12.2626 16.2803 11.9697C15.9874 11.6768 15.5126 11.6768 15.2197 11.9697L11.75 15.4393L8.28033 11.9697Z" fill="#C78667"/>
<path d="M8.28033 6.21967C7.98744 5.92678 7.51256 5.92678 7.21967 6.21967C6.92678 6.51256 6.92678 6.98744 7.21967 7.28033L11.2197 11.2803C11.5126 11.5732 11.9874 11.5732 12.2803 11.2803L16.2803 7.28033C16.5732 6.98744 16.5732 6.51256 16.2803 6.21967C15.9874 5.92678 15.5126 5.92678 15.2197 6.21967L11.75 9.68934L8.28033 6.21967Z" fill="#C78667"/>
</svg>
